<?xml version="1.0" encoding="UTF-8" standalone="no"?>
<!-- Created with Inkscape (http://www.inkscape.org/) -->

<svg
   xmlns:dc="http://purl.org/dc/elements/1.1/"
   xmlns:cc="http://creativecommons.org/ns#"
   xmlns:rdf="http://www.w3.org/1999/02/22-rdf-syntax-ns#"
   xmlns:svg="http://www.w3.org/2000/svg"
   xmlns="http://www.w3.org/2000/svg"
   xmlns:sodipodi="http://sodipodi.sourceforge.net/DTD/sodipodi-0.dtd"
   xmlns:inkscape="http://www.inkscape.org/namespaces/inkscape"
   width="250"
   height="100"
   id="svg2"
   version="1.1"
   inkscape:version="0.48.3.1 r9886"
   sodipodi:docname="logo.svg"
   inkscape:export-filename="/home/texzk/ChibiStudio/chibios/ext/uros/doc/doxygen/img/logo.png"
   inkscape:export-xdpi="45"
   inkscape:export-ydpi="45">
  <title
     id="title3006">uROSnode logo</title>
  <defs
     id="defs4" />
  <sodipodi:namedview
     id="base"
     pagecolor="#ffffff"
     bordercolor="#666666"
     borderopacity="1.0"
     inkscape:pageopacity="0.0"
     inkscape:pageshadow="2"
     inkscape:zoom="1.979899"
     inkscape:cx="61.739249"
     inkscape:cy="53.894352"
     inkscape:document-units="px"
     inkscape:current-layer="layer1"
     showgrid="false"
     inkscape:window-width="1280"
     inkscape:window-height="750"
     inkscape:window-x="0"
     inkscape:window-y="0"
     inkscape:window-maximized="1"
     fit-margin-top="0"
     fit-margin-left="0"
     fit-margin-right="0"
     fit-margin-bottom="0"
     borderlayer="false">
    <inkscape:grid
       type="xygrid"
       id="grid2985"
       empspacing="5"
       visible="true"
       enabled="true"
       snapvisiblegridlinesonly="true"
       originx="0px"
       originy="0px" />
  </sodipodi:namedview>
  <metadata
     id="metadata7">
    <rdf:RDF>
      <cc:Work
         rdf:about="">
        <dc:format>image/svg+xml</dc:format>
        <dc:type
           rdf:resource="http://purl.org/dc/dcmitype/StillImage" />
        <dc:title>uROSnode logo</dc:title>
        <dc:date>2012-12-07</dc:date>
        <dc:creator>
          <cc:Agent>
            <dc:title>Andrea Zoppi</dc:title>
          </cc:Agent>
        </dc:creator>
        <dc:rights>
          <cc:Agent>
            <dc:title>Politecnico di Milano</dc:title>
          </cc:Agent>
        </dc:rights>
        <dc:language>EN</dc:language>
        <dc:contributor>
          <cc:Agent>
            <dc:title>Andrea Zoppi</dc:title>
          </cc:Agent>
        </dc:contributor>
        <cc:license
           rdf:resource="http://creativecommons.org/licenses/by/3.0/" />
      </cc:Work>
      <cc:License
         rdf:about="http://creativecommons.org/licenses/by/3.0/">
        <cc:permits
           rdf:resource="http://creativecommons.org/ns#Reproduction" />
        <cc:permits
           rdf:resource="http://creativecommons.org/ns#Distribution" />
        <cc:requires
           rdf:resource="http://creativecommons.org/ns#Notice" />
        <cc:requires
           rdf:resource="http://creativecommons.org/ns#Attribution" />
        <cc:permits
           rdf:resource="http://creativecommons.org/ns#DerivativeWorks" />
      </cc:License>
    </rdf:RDF>
  </metadata>
  <g
     inkscape:label="Livello 1"
     inkscape:groupmode="layer"
     id="layer1"
     transform="translate(-40,-32.362179)">
    <path
       style="fill:none;stroke:#008080;stroke-width:8;stroke-linecap:square;stroke-linejoin:miter;stroke-miterlimit:0;stroke-opacity:1;stroke-dasharray:none"
       d="M 90,107.36219 90,92.362185"
       id="path3071"
       inkscape:connector-curvature="0" />
    <path
       style="fill:none;stroke:#008080;stroke-width:8;stroke-linecap:square;stroke-linejoin:miter;stroke-miterlimit:0;stroke-opacity:1;stroke-dasharray:none"
       d="m 90,72.362179 0,-15"
       id="path4657"
       inkscape:connector-curvature="0" />
    <path
       sodipodi:type="arc"
       style="fill:#000080"
       id="path2987"
       sodipodi:cx="60"
       sodipodi:cy="52.362183"
       sodipodi:rx="20"
       sodipodi:ry="20"
       d="m 80,52.362183 c 0,11.045695 -8.954305,20 -20,20 -11.045695,0 -20,-8.954305 -20,-20 0,-11.045695 8.954305,-20 20,-20 11.045695,0 20,8.954305 20,20 z"
       transform="matrix(0.5,0,0,0.5,25,21.181088)" />
    <path
       sodipodi:type="arc"
       style="fill:#000080"
       id="path2987-8"
       sodipodi:cx="60"
       sodipodi:cy="52.362183"
       sodipodi:rx="20"
       sodipodi:ry="20"
       d="m 80,52.362183 c 0,11.045695 -8.954305,20 -20,20 -11.045695,0 -20,-8.954305 -20,-20 0,-11.045695 8.954305,-20 20,-20 11.045695,0 20,8.954305 20,20 z"
       transform="matrix(0.5,0,0,0.5,25,56.181088)" />
    <path
       sodipodi:type="arc"
       style="fill:#000080"
       id="path2987-8-7"
       sodipodi:cx="60"
       sodipodi:cy="52.362183"
       sodipodi:rx="20"
       sodipodi:ry="20"
       d="m 80,52.362183 c 0,11.045695 -8.954305,20 -20,20 -11.045695,0 -20,-8.954305 -20,-20 0,-11.045695 8.954305,-20 20,-20 11.045695,0 20,8.954305 20,20 z"
       transform="matrix(0.5,0,0,0.5,25,91.181088)" />
    <path
       sodipodi:type="arc"
       style="fill:#008080"
       id="path2987-8-70"
       sodipodi:cx="60"
       sodipodi:cy="52.362183"
       sodipodi:rx="20"
       sodipodi:ry="20"
       d="m 80,52.362183 c 0,11.045695 -8.954305,20 -20,20 -11.045695,0 -20,-8.954305 -20,-20 0,-11.045695 8.954305,-20 20,-20 11.045695,0 20,8.954305 20,20 z"
       transform="matrix(0.5,0,0,0.5,60,56.181088)" />
    <path
       sodipodi:type="arc"
       style="fill:#000080"
       id="path2987-8-2"
       sodipodi:cx="60"
       sodipodi:cy="52.362183"
       sodipodi:rx="20"
       sodipodi:ry="20"
       d="m 80,52.362183 c 0,11.045695 -8.954305,20 -20,20 -11.045695,0 -20,-8.954305 -20,-20 0,-11.045695 8.954305,-20 20,-20 11.045695,0 20,8.954305 20,20 z"
       transform="matrix(0.5,0,0,0.5,95,91.181088)" />
    <path
       style="fill:#008080;stroke:none"
       d="m 80,57.362179 20,0 -10,-20 z"
       id="path4661"
       inkscape:connector-curvature="0" />
    <path
       style="fill:#008080;stroke:none"
       d="m 115,57.362179 20,0 -10,-20 z"
       id="path4661-3"
       inkscape:connector-curvature="0" />
    <path
       style="fill:none;stroke:#008080;stroke-width:8;stroke-linecap:square;stroke-linejoin:miter;stroke-miterlimit:0;stroke-opacity:1;stroke-dasharray:none"
       d="m 100,82.362178 10,10e-7 c 10,0 15,-5 15,-15 l 0,-10"
       id="path4694"
       inkscape:connector-curvature="0"
       sodipodi:nodetypes="cccc" />
    <path
       sodipodi:type="arc"
       style="fill:#008080"
       id="path2987-8-70-0"
       sodipodi:cx="60"
       sodipodi:cy="52.362183"
       sodipodi:rx="20"
       sodipodi:ry="20"
       d="m 80,52.362183 c 0,11.045695 -8.954305,20 -20,20 -11.045695,0 -20,-8.954305 -20,-20 0,-11.045695 8.954305,-20 20,-20 11.045695,0 20,8.954305 20,20 z"
       transform="matrix(0.5,0,0,0.5,60,91.181088)" />
    <text
       xml:space="preserve"
       style="font-size:72px;font-style:normal;font-variant:normal;font-weight:normal;font-stretch:normal;line-height:125%;letter-spacing:-1px;word-spacing:0px;fill:#000080;fill-opacity:1;stroke:none;font-family:DejaVu Sans;-inkscape-font-specification:DejaVu Sans"
       x="140"
       y="90.362183"
       id="text4751"
       sodipodi:linespacing="125%"><tspan
         sodipodi:role="line"
         id="tspan4753"
         x="140"
         y="90.362183"
         style="font-size:72px;font-style:normal;font-variant:normal;font-weight:normal;font-stretch:normal;letter-spacing:-1px;fill:#000080;font-family:DejaVu Sans;-inkscape-font-specification:DejaVu Sans">ROS</tspan></text>
    <text
       xml:space="preserve"
       style="font-size:40px;font-style:normal;font-weight:normal;line-height:125%;letter-spacing:14px;word-spacing:0px;fill:#008080;fill-opacity:1;stroke:none;font-family:Sans"
       x="145"
       y="127.36218"
       id="text4755"
       sodipodi:linespacing="125%"><tspan
         sodipodi:role="line"
         id="tspan4757"
         x="145"
         y="127.36218">node</tspan></text>
    <text
       xml:space="preserve"
       style="font-size:40px;font-style:normal;font-weight:normal;line-height:125%;letter-spacing:0px;word-spacing:0px;fill:#000000;fill-opacity:1;stroke:none;font-family:Sans"
       x="335.82495"
       y="56.806084"
       id="text4759"
       sodipodi:linespacing="125%"><tspan
         sodipodi:role="line"
         id="tspan4761"
         x="335.82495"
         y="56.806084" /></text>
    <text
       xml:space="preserve"
       style="font-size:40px;font-style:normal;font-weight:normal;line-height:125%;letter-spacing:0px;word-spacing:0px;fill:#000000;fill-opacity:1;stroke:none;font-family:Sans"
       x="283.21429"
       y="58.214287"
       id="text3004"
       sodipodi:linespacing="125%"
       transform="translate(40,32.362179)"><tspan
         sodipodi:role="line"
         id="tspan3006" /></text>
  </g>
</svg>
